<svg version="1.0" xmlns="http://www.w3.org/2000/svg"
     width="389.000000pt" height="506.000000pt" viewBox="0 0 389.000000 506.000000"
     preserveAspectRatio="xMidYMid meet">

  <g transform="translate(0.000000,506.000000) scale(0.100000,-0.100000)"
     fill="#000000" stroke="none">
    <path d="M840 3553 l0 -1153 280 0 280 0 0 1153 0 1152 -280 0 -280 0 0 -1152z"/>
    <path d="M1530 3981 l0 -721 48 37 c167 128 402 147 609 48 93 -45 212 -155
266 -247 113 -190 124 -430 29 -620 l-38 -78 403 0 c222 0 403 2 403 5 0 3
-937 1259 -1001 1341 -5 6 12 25 44 48 29 21 67 57 85 81 36 47 72 131 72 168
0 21 -4 23 -46 20 -25 -2 -60 1 -79 6 -22 6 -37 5 -44 -2 -8 -8 -11 -8 -11 1
0 6 -7 9 -15 6 -8 -4 -15 -2 -15 4 0 5 -12 13 -27 18 -29 8 -41 9 -105 12 -25
1 -38 7 -38 16 0 8 -7 16 -15 20 -8 3 -15 12 -15 21 0 8 -4 15 -9 15 -15 0
-74 61 -99 102 -13 21 -34 46 -48 57 -13 10 -24 23 -24 28 0 5 -13 22 -30 38
l-30 29 22 23 c33 36 13 27 -32 -13 -22 -20 -42 -35 -44 -33 -2 2 -51 68 -110
147 l-106 143 0 -720z"/>
    <path d="M2040 2398 c0 -2 -2 -78 -3 -170 l-2 -166 129 -1 c166 -1 166 -1 166
121 0 117 -10 128 -114 128 -41 0 -78 -4 -81 -10 -15 -24 -25 -6 -25 45 l0 55
-35 0 c-19 0 -35 -1 -35 -2z m210 -213 l0 -105 -58 0 c-32 0 -63 5 -70 12 -7
7 -12 43 -12 93 0 50 5 86 12 93 7 7 38 12 70 12 l58 0 0 -105z"/>
    <path d="M1510 2360 c0 -28 3 -30 35 -30 32 0 35 2 35 30 0 28 -3 30 -35 30
-32 0 -35 -2 -35 -30z"/>
    <path d="M850 2185 l0 -125 40 0 39 0 3 108 3 107 55 3 c30 2 60 8 65 14 7 7
-11 9 -57 6 -38 -2 -68 0 -68 4 0 4 -18 8 -40 8 l-40 0 0 -125z"/>
    <path d="M1140 2300 c0 -6 40 -10 100 -10 l100 0 0 -35 0 -35 -93 0 c-59 0
-97 -4 -105 -12 -17 -17 -16 -123 2 -137 8 -7 61 -11 145 -10 l131 0 0 108 c0
143 2 141 -158 141 -75 0 -122 -4 -122 -10z m198 -157 l-3 -58 -62 -3 -63 -3
0 61 0 60 65 0 66 0 -3 -57z"/>
    <path d="M1510 2185 l0 -125 40 0 40 0 0 125 0 125 -40 0 -40 0 0 -125z"/>
    <path d="M1670 2185 l0 -125 35 0 35 0 0 103 c0 67 4 107 12 115 7 7 38 12 70
12 l58 0 0 -115 0 -115 40 0 40 0 0 105 c0 135 -8 145 -111 145 -39 0 -79 -5
-90 -10 -13 -7 -19 -7 -19 0 0 5 -16 10 -35 10 l-35 0 0 -125z"/>
    <path d="M2432 2294 c-20 -14 -22 -23 -22 -109 0 -125 0 -125 145 -125 145 0
145 0 145 125 0 121 -4 125 -145 125 -75 0 -106 -4 -123 -16z m196 -108 c1
-55 -1 -102 -7 -105 -5 -3 -38 -4 -73 -1 l-63 5 -3 89 c-2 49 0 96 2 103 4 10
23 13 73 11 l68 -3 3 -99z"/>
    <path d="M2800 2294 c0 -4 14 -58 31 -120 l31 -114 44 0 c23 0 45 4 48 9 3 4
14 49 23 100 10 50 23 91 28 91 6 0 20 -45 33 -100 l23 -100 47 0 47 0 23 98
c12 53 25 107 28 120 6 19 3 22 -24 22 -29 0 -30 -2 -46 -71 -9 -39 -16 -78
-16 -85 0 -8 -4 -14 -10 -14 -5 0 -10 -4 -10 -10 0 -5 4 -10 9 -10 11 0 25 43
41 123 9 44 15 57 29 57 17 0 17 -7 -8 -105 -24 -102 -27 -106 -51 -103 -22 3
-25 8 -25 43 0 22 -9 70 -19 108 l-19 67 -52 0 -52 0 -19 -85 c-10 -47 -21
-85 -25 -85 -4 0 -12 21 -18 48 -32 126 -30 122 -61 122 -17 0 -30 -3 -30 -6z"/>
  </g>
</svg>
